<?xml version="1.0" encoding="UTF-8"?>
<svg width="45px" height="45px" viewBox="0 0 45 45" version="1.1" xmlns="http://www.w3.org/2000/svg" xmlns:xlink="http://www.w3.org/1999/xlink">
    <!-- Generator: Sketch 51.2 (57519) - http://www.bohemiancoding.com/sketch -->
    <title>Untitled</title>
    <desc>Created with Sketch.</desc>
    <defs>
        <circle id="path-1" cx="22.5" cy="22.5" r="22.5"></circle>
        <linearGradient x1="49.9599387%" y1="-1494.60174%" x2="49.9599388%" y2="3295.42735%" id="linearGradient-3">
            <stop stop-color="#231F20" offset="0%"></stop>
            <stop stop-color="#4D4D4F" offset="21.98%"></stop>
            <stop stop-color="#231F20" offset="56.04%"></stop>
            <stop stop-color="#4D4D4F" offset="79.12%"></stop>
            <stop stop-color="#231F20" offset="100%"></stop>
        </linearGradient>
    </defs>
    <g id="Page-1" stroke="none" stroke-width="1" fill="none" fill-rule="evenodd">
        <g id="car">
            <mask id="mask-2" fill="white">
                <use xlink:href="#path-1"></use>
            </mask>
            <g id="Mask" fill-rule="nonzero"></g>
            <g mask="url(#mask-2)" fill-rule="nonzero">
                <g transform="translate(-12.000000, -7.000000)">
                    <polyline id="XMLID_73_" fill="#AAE6FF" points="62 58 0 58 0 0 62 0 62 58"></polyline>
                    <path d="M51.4086022,16.8444688 L37.9462366,16.8444688 C37.4086022,16.8444688 37,17.2825849 37,17.8521358 L37,18.0492881 C37.0430108,18.5969332 37.4516129,19.1664841 37.9677419,19.1664841 L43.3763441,19.1664841 C43.827957,19.1664841 44.2150538,19.6703176 44.2150538,20.1303395 C44.2150538,20.5903614 43.827957,21.094195 43.3763441,21.094195 L41,21.094195 C40.4623656,21.094195 40.2258065,21.4446878 40.2258065,21.9704272 L40.2258065,22.0580504 C40.2258065,22.5728368 40.6344086,23 41.1505376,23 L47.3548387,23 L48.2258065,21.5213582 C48.3010753,21.3899233 48.4408602,21.313253 48.5913978,21.313253 L49.2580645,21.313253 C49.0537634,21.1708653 48.7956989,21.094195 48.5268817,21.094195 L47.655914,21.094195 C47.1505376,21.094195 46.7096774,20.6998905 46.688172,20.1851041 C46.655914,19.6155531 47.0967742,19.177437 47.655914,19.177437 L53,19.177437 C52.516129,18.3559693 51.9892473,17.5783133 51.4086022,16.8444688 M47.5053763,13 L47.2258065,13 C46.7204301,13 46.2795699,13.3943045 46.2580645,13.9090909 C46.2258065,14.4786418 46.6666667,14.9167579 47.2258065,14.9167579 L49.7204301,14.9167579 C49.0215054,14.237678 48.2795699,13.5914567 47.5053763,13" id="XMLID_77_" fill="#F3F3F3"></path>
                    <path d="M46.9488886,36.9326015 L46.0498765,33.8681827 C46.0181467,33.7643041 45.9652636,33.6604255 45.9018039,33.5669347 L36.7424568,21.6001194 C36.488618,21.2677079 36.0232471,21.1430536 35.6319124,21.3092593 L33.5694728,22.1714517 C33.1464082,22.3480454 32.659884,22.1922275 32.4166219,21.8182645 L31.4118436,20.2704733 L30.5022549,21.0599507 C30.3118759,21.2261564 30.0263073,21.1949929 29.8782347,20.9976235 L29.2436379,20.1665947 C29.0849887,19.9588375 28.7571137,19.9380617 28.5773113,20.1458189 L28.1225169,20.6548241 C27.9638677,20.8314177 27.6994524,20.8418056 27.5196499,20.6963756 L27.1811983,20.4159033 C27.0119725,20.2808611 26.7687104,20.2808611 26.6100612,20.4262912 L25.9754644,21.0080114 C25.7745087,21.184605 25.4572103,21.1430536 25.3197144,20.9145206 L24.9601095,20.3328004 L21.1948352,27.1576248 C20.9198432,27.6458542 20.2746698,27.7912843 19.8198754,27.4588727 L16.329593,24.9138469 C15.8642221,24.5710475 15.1767422,24.7372533 14.9229035,25.2462585 L9,37.0988073 L9,38.9997858 L46.2296789,38.9997858 C46.8642757,39.0205615 47.1181144,37.5247096 46.9488886,36.9326015" id="XMLID_79_" fill="#2A3E56"></path>
                    <path d="M26.9359606,20.8514583 L27.5270936,20.3092355 C27.6748768,20.1736798 27.9014778,20.1736798 28.0591133,20.2995529 L28.3743842,20.5609818 C28.5418719,20.6965375 28.7881773,20.6771724 28.9359606,20.5222516 L29.3596059,20.0478066 C29.5270936,19.8638382 29.8226601,19.8735207 29.9802956,20.0671717 L30.5714286,20.8417758 C30.7093596,21.0257442 30.9753695,21.0547919 31.1527094,20.8998711 L32,20.1639972 L29.5763547,16.3974852 C29.2216749,15.8455798 28.3940887,15.8746275 28.0788177,16.4458979 L26,20.2220925 L26.3349754,20.7643154 C26.453202,20.9773315 26.7586207,21.0160617 26.9359606,20.8514583 Z" id="XMLID_80_" fill="#FFFFFF"></path>
                    <path d="M42.0841234,27.5002248 L35.0891752,39.7451753 C34.804313,40.3297595 35.2368815,41.0082947 35.8910094,41.0082947 L56.1056713,42 C56.8442028,42 57.2662208,41.1648798 56.8125514,40.5802956 L51.4845743,31.9681181 C51.1786112,31.571436 50.6088869,31.508802 50.2185203,31.811533 L48.9102645,32.8449943 C48.5198978,33.1581644 47.9396231,33.0850914 47.6442105,32.6884093 L43.6033882,27.3540787 C43.2024711,26.8216896 42.3689856,26.9052016 42.0841234,27.5002248" id="XMLID_81_" fill="#2B4059"></path>
                    <path d="M56,52 L56,33.9979188 C54.4113829,33.0197711 52.5866201,32.8324662 50.9658013,32.842872 C49.9890165,32.842872 47.7348977,33.2174818 46.2536196,33.7793965 C45.3841737,33.7585848 44.611333,33.8002081 44.2141787,33.8418314 C42.5611583,34.0395421 40.7041937,34.4869927 39.0941088,34.9760666 C39.0833749,34.9760666 38.9331003,34.9968783 38.8150275,34.9864724 C38.8472292,34.9864724 38.7828258,34.9656608 38.6969546,34.9448491 C36.3891663,34.2580645 33.7700949,33.7273673 31.4301048,33.44641 C30.8397404,33.3735692 29.7234149,33.3319459 28.4568148,33.3527575 C26.299301,32.541103 23.0254618,32 21.5978532,32 C18.7963055,32 16.4455816,32.0104058 13,33.5504683 L13,52 L56,52" id="XMLID_82_" fill="#32C98F"></path>
                    <path d="M43,52 L43,38.5662338 C42.9577316,38.5558442 42.9154632,38.5454545 42.8626277,38.5350649 C42.7780909,38.5246753 42.7041212,38.5038961 42.6195844,38.4935065 C42.5878831,38.4831169 42.5561818,38.4831169 42.5456147,38.4831169 L42.5244805,38.4831169 C41.8587531,38.4103896 41.1930257,38.3896104 40.5272983,38.3064935 C40.1363156,38.2649351 39.7347658,38.212987 39.343783,38.1090909 C38.9633674,38.0051948 38.6040859,37.8493506 38.2448045,37.6935065 C37.8643889,37.5272727 37.7270166,37.4545455 37.3994364,37.3402597 C37.0612892,37.225974 36.7125749,37.1636364 36.3638605,37.1012987 C36.311025,37.0909091 36.2581895,37.0701299 36.2159211,37.0493506 C36.0891159,37.038961 35.9517436,37.0285714 36.1102501,37.038961 C35.6452976,37.0181818 35.05354,36.6025974 35.05354,36.1350649 C35.05354,35.6779221 35.6452976,35.3662338 36.1102501,35.3662338 C35.8672068,35.3662338 36.3638605,35.3558442 36.4272631,35.3454545 C36.4800986,35.3454545 36.5963367,35.3350649 36.6597393,35.3350649 C36.6069038,35.3350649 36.6069038,35.2831169 36.7865446,35.2727273 C36.8182459,35.2727273 36.9978866,35.2415584 37.0084537,35.2311688 C37.3994364,35.1688312 37.8538218,35.1376623 38.2342374,35.012987 C38.3293413,34.9818182 38.3187742,34.9922078 38.4244452,34.9818182 L38.2342374,34.9194805 C35.9623107,34.2337662 33.4473406,33.7142857 31.1437126,33.4441558 C30.562522,33.3714286 29.4635435,33.3298701 28.2166256,33.3506494 C26.0926383,32.5402597 22.8696724,32 21.464248,32 C18.7062346,32 16.6245157,32.3428571 13,33.8909091 L13,52 L43,52" id="XMLID_83_" fill="#31C98F"></path>
                    <path d="M37.415524,37.6050061 C40.3035225,38.2173382 43.0444956,39.6807082 38.1296473,42.6178266 C29.4446481,47.7863248 21.8413357,50.5677656 17,52 L47.3712425,52 C48.7574818,50.3705739 50.091212,48.6477411 50.7948334,47.526862 C54.0608972,42.2857143 50.3012482,39.3070818 44.1681896,37.8125763 C38.0351309,36.3180708 36.071292,36.3180708 35.5356995,35.9236874 C35.0736197,35.5811966 38.0771382,35.1141636 38.8437705,35 L38.5392179,35 C37.751582,35.0518926 36.0502883,35.1868132 33.8029004,35.5708181 C30.9569091,36.0482295 34.5170237,36.992674 37.415524,37.6050061" id="XMLID_84_" fill="#F2F2F2"></path>
                    <path d="M36,35 C35.3875969,35.3090909 34.8682171,35.6727273 35.0310078,36 C35.0077519,35.9636364 35,35.9272727 35,35.8727273 C35,35.5818182 35.4651163,35.2727273 36,35" id="XMLID_85_" fill="url(#linearGradient-3)"></path>
                    <path d="M37.415524,37.6050061 C40.3035225,38.2173382 43.0444956,39.6807082 38.1296473,42.6178266 C29.4446481,47.7863248 21.8413357,50.5677656 17,52 L47.3712425,52 C48.7574818,50.3705739 50.091212,48.6477411 50.7948334,47.526862 C54.0608972,42.2857143 50.3012482,39.3070818 44.1681896,37.8125763 C38.0351309,36.3180708 36.071292,36.3180708 35.5356995,35.9236874 C35.0736197,35.5811966 38.0666364,35.1141636 38.8437705,35 L38.5392179,35 C37.751582,35.0518926 36.0502883,35.1868132 33.8029004,35.5708181 C30.9569091,36.0482295 34.5170237,36.992674 37.415524,37.6050061" id="XMLID_86_" fill="#F0F4F7"></path>
                    <path d="M35.1445087,49 L34.8554913,49 C34.3815029,49 34,48.6393443 34,48.1912568 L34,45 L36,45 L36,48.1912568 C36,48.6393443 35.6184971,49 35.1445087,49 Z" id="XMLID_87_" fill="#1A1A1A"></path>
                    <path d="M46.1445087,49 L45.8554913,49 C45.3815029,49 45,48.6393443 45,48.1912568 L45,45 L47,45 L47,48.1912568 C47,48.6393443 46.6184971,49 46.1445087,49 Z" id="XMLID_88_" fill="#1A1A1A"></path>
                    <path d="M46.3871473,39.0666667 C45.838558,37.7888889 44.5987461,37 43.2163009,37 L38.3448276,37 C36.830721,37 35.4811912,37.9555556 35.0423197,39.4333333 L34,45 L48,45 L46.3871473,39.0666667" id="XMLID_95_" fill="#495D77"></path>
                    <path d="M47.7968718,45 L34.1482713,45 L34.030611,45.7038462 C33.8273795,46.8807692 34.6616983,48 35.7741234,48 L46.2245017,48 C47.3904088,48 48.2461204,46.7653846 47.935925,45.5538462 L47.7968718,45 Z" id="XMLID_96_" fill="#384A5E"></path>
                    <path d="M42.5625,44 L38.4375,44 C38.1979167,44 38,43.7738095 38,43.5 C38,43.2261905 38.1979167,43 38.4375,43 L42.5625,43 C42.8020833,43 43,43.2261905 43,43.5 C43,43.7738095 42.8020833,44 42.5625,44 Z" id="XMLID_97_" fill="#FFFFFF"></path>
                    <path d="M42.9443036,39 L36.9585944,39 C36.6108331,39 36.3052247,39.2737643 36.2419954,39.6501901 L36.0101545,41.0874525 C35.936387,41.5665399 36.2736101,42 36.7267535,42 L43.2815266,42 C43.7557466,42 44.0929696,41.5209125 43.9770492,41.0304183 L43.6398261,39.5931559 C43.5660586,39.2395437 43.2709884,39 42.9443036,39" id="XMLID_98_" fill="#6D7D92"></path>
                    <circle id="XMLID_99_" fill="#E1E1E1" cx="36" cy="43" r="1"></circle>
                    <circle id="XMLID_100_" fill="#E1E1E1" cx="46" cy="43" r="1"></circle>
                    <circle id="XMLID_101_" fill="#2A3C4C" cx="37.5" cy="46.5" r="1"></circle>
                    <rect id="XMLID_103_" fill="#1EAF77" x="50" y="30" width="4" height="2"></rect>
                    <polyline id="XMLID_104_" fill="#AD7C50" points="52 32 52 36 51 36 51 32 52 32"></polyline>
                    <path d="M52.6938776,36 L51.8061224,36 L51.1938776,36 L50.3061224,36 C50.1326531,36 50,36.2166667 50,36.5 C50,36.7833333 50.1326531,37 50.3061224,37 L52.6938776,37 C52.8673469,37 53,36.7833333 53,36.5 C53,36.2166667 52.8571429,36 52.6938776,36" id="XMLID_105_" fill="#259165"></path>
                    <circle id="XMLID_106_" fill="#1EAF77" cx="52" cy="32" r="2"></circle>
                    <circle id="XMLID_107_" fill="#20BB85" cx="52" cy="30" r="2"></circle>
                    <path d="M19.8756098,29.7966102 L19.9341463,29.7033898 C20.0219512,29.5762712 20.0219512,29.4237288 19.9341463,29.2966102 L19.8756098,29.2033898 C19.7878049,29.0762712 19.6414634,29 19.4658537,29 L17.5341463,29 C17.3682927,29 17.2121951,29.0762712 17.1243902,29.2033898 L17.0658537,29.2966102 C16.9780488,29.4237288 16.9780488,29.5762712 17.0658537,29.7033898 L17.1243902,29.7966102 C17.2121951,29.9237288 17.3585366,30 17.5341463,30 L19.4658537,30 C19.6414634,30 19.7878049,29.9237288 19.8756098,29.7966102 Z" id="XMLID_108_" fill="#1C9966"></path>
                    <path d="M20.9186047,28.7647059 L20.9372093,28.7352941 C21.0209302,28.5882353 21.0209302,28.4117647 20.9372093,28.2647059 L20.9186047,28.2352941 C20.8348837,28.0882353 20.6953488,28 20.527907,28 L20.472093,28 C20.3139535,28 20.1651163,28.0882353 20.0813953,28.2352941 L20.0627907,28.2647059 C19.9790698,28.4117647 19.9790698,28.5882353 20.0627907,28.7352941 L20.0813953,28.7647059 C20.1651163,28.9117647 20.3046512,29 20.472093,29 L20.527907,29 C20.6953488,29 20.8348837,28.9019608 20.9186047,28.7647059 Z" id="XMLID_109_" fill="#1EA873"></path>
                    <polyline id="XMLID_110_" fill="#AD7C50" points="19.5 35 19 35 19 28 19.5 28 19.5 35"></polyline>
                    <rect id="XMLID_111_" fill="#AD7C50" transform="translate(18.406505, 31.274283) rotate(-45.008103) translate(-18.406505, -31.274283) " x="17.9065048" y="29.7742374" width="1" height="3"></rect>
                    <rect id="XMLID_112_" fill="#AD7C50" transform="translate(19.955070, 31.774283) rotate(-135.016206) translate(-19.955070, -31.774283) " x="19.4550698" y="30.7741922" width="1" height="2"></rect>
                    <path d="M19.8268398,34 L19.1515152,34 L18.8138528,34 L18.1731602,34 C18.0779221,34 18,34.1125 18,34.25 C18,34.3875 18.0779221,34.5 18.1731602,34.5 L19.8268398,34.5 C19.9220779,34.5 20,34.3875 20,34.25 C20,34.1125 19.9220779,34 19.8268398,34" id="XMLID_125_" fill="#30B781"></path>
                    <path d="M18.893617,30.7669903 L18.9179331,30.7378641 C19.0273556,30.592233 19.0273556,30.4174757 18.9179331,30.2718447 L18.893617,30.2330097 C18.7841945,30.0873786 18.6018237,30 18.3829787,30 L17.6170213,30 C17.4103343,30 17.2158055,30.0873786 17.106383,30.2330097 L17.0820669,30.2718447 C16.9726444,30.4174757 16.9726444,30.592233 17.0820669,30.7378641 L17.106383,30.7669903 C17.2158055,30.9126214 17.3981763,31 17.6170213,31 L18.3951368,31 C18.6018237,31 18.7963526,30.9126214 18.893617,30.7669903 Z" id="XMLID_126_" fill="#20BB85"></path>
                    <path d="M21.9165171,30.7647059 L21.927289,30.7352941 C22.024237,30.5882353 22.024237,30.4117647 21.927289,30.2647059 L21.9165171,30.2352941 C21.8195691,30.0882353 21.6579892,30 21.4640934,30 L19.5359066,30 C19.3527828,30 19.1804309,30.0882353 19.0834829,30.2352941 L19.072711,30.2647059 C18.975763,30.4117647 18.975763,30.5882353 19.072711,30.7352941 L19.0834829,30.7647059 C19.1804309,30.9117647 19.3420108,31 19.5359066,31 L21.4640934,31 C21.6579892,31 21.8303411,30.9117647 21.9165171,30.7647059 Z" id="XMLID_127_" fill="#20BB85"></path>
                    <path d="M21.9114754,31.75 C22.0295082,31.59375 22.0295082,31.40625 21.9114754,31.25 C21.7934426,31.09375 21.5967213,31 21.3606557,31 L20.6393443,31 C20.4163934,31 20.2065574,31.09375 20.0885246,31.25 C19.9704918,31.40625 19.9704918,31.59375 20.0885246,31.75 C20.2065574,31.90625 20.4032787,32 20.6393443,32 L21.3606557,32 C21.5836066,32 21.7934426,31.90625 21.9114754,31.75 Z" id="XMLID_128_" fill="#1EA873"></path>
                    <path d="M19.8943489,27.7818182 L19.9336609,27.7181818 C20.022113,27.5818182 20.022113,27.4181818 19.9336609,27.2818182 L19.8943489,27.2181818 C19.8058968,27.0818182 19.6584767,27 19.4815725,27 L18.5184275,27 C18.3513514,27 18.1941032,27.0818182 18.1056511,27.2181818 L18.0663391,27.2818182 C17.977887,27.4181818 17.977887,27.5818182 18.0663391,27.7181818 L18.1056511,27.7818182 C18.1941032,27.9181818 18.3415233,28 18.5184275,28 L19.4815725,28 C19.6486486,28 19.8058968,27.9181818 19.8943489,27.7818182 Z" id="XMLID_129_" fill="#1EA873"></path>
                    <path d="M17.9157706,28.7857143 L17.9516129,28.7142857 C18.016129,28.5803571 18.016129,28.4196429 17.9516129,28.2857143 L17.9157706,28.2142857 C17.8512545,28.0803571 17.7437276,28 17.6146953,28 L17.3853047,28 C17.2634409,28 17.1487455,28.0803571 17.0842294,28.2142857 L17.0483871,28.2857143 C16.983871,28.4196429 16.983871,28.5803571 17.0483871,28.7142857 L17.0842294,28.7857143 C17.1487455,28.9196429 17.2562724,29 17.3853047,29 L17.6146953,29 C17.7365591,29 17.8512545,28.9107143 17.9157706,28.7857143 Z" id="XMLID_130_" fill="#2CC68B"></path>
                    <path d="M29.8810445,36.7979798 L29.9390716,36.7070707 C30.0203095,36.5757576 30.0203095,36.4242424 29.9390716,36.2929293 L29.8810445,36.2020202 C29.7998066,36.0707071 29.6373308,36 29.4748549,36 L27.5251451,36 C27.3510638,36 27.2001934,36.0808081 27.1189555,36.2020202 L27.0609284,36.2929293 C26.9796905,36.4242424 26.9796905,36.5757576 27.0609284,36.7070707 L27.1189555,36.7979798 C27.2001934,36.9292929 27.3626692,37 27.5251451,37 L29.4748549,37 C29.6373308,37 29.7882012,36.9191919 29.8810445,36.7979798 Z" id="XMLID_131_" fill="#1C9966"></path>
                    <path d="M29.9189944,35.7693718 L29.9413408,35.7349223 C30.0195531,35.5856412 30.0195531,35.4133938 29.9413408,35.2641127 L29.9189944,35.2296632 C29.8407821,35.0803821 29.6843575,35 29.527933,35 L29.472067,35 C29.3044693,35 29.1592179,35.0918653 29.0810056,35.2296632 L29.0586592,35.2641127 C28.9804469,35.4133938 28.9804469,35.5856412 29.0586592,35.7349223 L29.0810056,35.7693718 C29.1592179,35.9186529 29.3156425,35.999035 29.472067,35.999035 L29.527933,35.999035 C29.6955307,36.0105182 29.8407821,35.9186529 29.9189944,35.7693718 Z" id="XMLID_132_" fill="#1EA873"></path>
                    <polyline id="XMLID_133_" fill="#AD7C50" points="28.5 40 28 40 28 34 28.5 34 28.5 40"></polyline>
                    <rect id="XMLID_134_" fill="#AD7C50" transform="translate(27.398718, 37.755483) rotate(-45.008103) translate(-27.398718, -37.755483) " x="26.8987178" y="36.7554342" width="1" height="2"></rect>
                    <rect id="XMLID_135_" fill="#AD7C50" transform="translate(28.909684, 37.755483) rotate(-135.016206) translate(-28.909684, -37.755483) " x="28.4096841" y="36.7553853" width="1" height="2"></rect>
                    <path d="M28.8274112,40 L28.1573604,40 L27.8121827,40 L27.1725888,40 C27.0812183,40 27,40.1176471 27,40.25 C27,40.3823529 27.0812183,40.5 27.1725888,40.5 L28.8274112,40.5 C28.9187817,40.5 29,40.3823529 29,40.25 C29,40.1176471 28.9187817,40 28.8274112,40" id="XMLID_136_" fill="#30B781"></path>
                    <path d="M26.9476534,37.7701149 L26.9620939,37.7356322 C27.0126354,37.5862069 27.0126354,37.4137931 26.9620939,37.2643678 L26.9476534,37.2298851 C26.8971119,37.0804598 26.7960289,37 26.6949458,37 L26.3050542,37 C26.1967509,37 26.1028881,37.091954 26.0523466,37.2298851 L26.0379061,37.2643678 C25.9873646,37.4137931 25.9873646,37.5862069 26.0379061,37.7356322 L26.0523466,37.7701149 C26.1028881,37.9195402 26.2039711,38 26.3050542,38 L26.6949458,38 C26.7960289,38 26.8971119,37.908046 26.9476534,37.7701149 Z" id="XMLID_137_" fill="#20BB85"></path>
                    <path d="M29.9466951,36.7639506 L29.9552239,36.7404445 C30.0149254,36.5876543 30.0149254,36.411358 29.9552239,36.2585679 L29.9466951,36.2350617 C29.8869936,36.0822716 29.7675906,36 29.6481876,36 L28.3518124,36 C28.2238806,36 28.1130064,36.0940247 28.0533049,36.2350617 L28.0447761,36.2585679 C27.9850746,36.411358 27.9850746,36.5876543 28.0447761,36.7404445 L28.0533049,36.7639506 C28.1130064,36.9167408 28.2324094,36.9990124 28.3518124,36.9990124 L29.6481876,36.9990124 C29.7761194,37.0107654 29.8869936,36.9167408 29.9466951,36.7639506 Z" id="XMLID_138_" fill="#20BB85"></path>
                    <path d="M29.9588235,37.7530864 C30.0137255,37.5925926 30.0137255,37.4074074 29.9588235,37.2469136 C29.9039216,37.0864198 29.7941176,37 29.6843137,37 L29.3156863,37 C29.1980392,37 29.0960784,37.0987654 29.0411765,37.2469136 C28.9862745,37.4074074 28.9862745,37.5925926 29.0411765,37.7530864 C29.0960784,37.9135802 29.2058824,38 29.3156863,38 L29.6843137,38 C29.8019608,38 29.9039216,37.9135802 29.9588235,37.7530864 Z" id="XMLID_139_" fill="#1EA873"></path>
                    <path d="M28.9026549,34.7849462 L28.9380531,34.7204301 C29.020649,34.5806452 29.020649,34.4193548 28.9380531,34.2795699 L28.9026549,34.2150538 C28.820059,34.0752688 28.6548673,34 28.4896755,34 L27.5103245,34 C27.3333333,34 27.179941,34.0860215 27.0973451,34.2150538 L27.0619469,34.2795699 C26.979351,34.4193548 26.979351,34.5806452 27.0619469,34.7204301 L27.0973451,34.7849462 C27.179941,34.9247312 27.3451327,35 27.5103245,35 L28.4896755,35 C28.6548673,35 28.820059,34.9139785 28.9026549,34.7849462 Z" id="XMLID_140_" fill="#1EA873"></path>
                    <path d="M27.9206009,35.788776 L27.9549356,35.7151569 C28.0150215,35.5784357 28.0150215,35.4206805 27.9549356,35.2839594 L27.9206009,35.2103403 C27.860515,35.0736191 27.7403433,35 27.6201717,35 L27.3798283,35 C27.251073,35 27.139485,35.0841361 27.0793991,35.2103403 L27.0450644,35.2839594 C26.9849785,35.4206805 26.9849785,35.5784357 27.0450644,35.7151569 L27.0793991,35.788776 C27.139485,35.9254971 27.2596567,35.9991162 27.3798283,35.9991162 L27.6201717,35.9991162 C27.7403433,36.0096332 27.8519313,35.9254971 27.9206009,35.788776 Z" id="XMLID_141_" fill="#2CC68B"></path>
                    <path d="M19.7450937,43 L15.1866049,43 C15.0790011,43 14.9909616,42.8945313 15.0007438,42.765625 C15.0985654,41.2304688 16.1843857,40 17.5049779,40 C18.7962237,40 19.8526975,41.1835938 19.99943,42.671875 C20.0092121,42.8476562 19.8918261,43 19.7450937,43" id="XMLID_142_" fill="#1EA873"></path>
                    <path d="M17.6885246,40 C17.6229508,40 17.557377,40.0192308 17.4918033,40.0192308 C17.4590164,40.0192308 17.4098361,40.0384615 17.3770492,40.0384615 C17.3442623,40.0576923 17.295082,40.0576923 17.2459016,40.0769231 C17.1639344,40.0961538 17.0819672,40.1346154 17,40.1730769 C17.0491803,40.2884615 17.1147541,40.3846154 17.1639344,40.5 C17.2295082,40.4615385 17.2786885,40.4230769 17.3442623,40.3846154 C17.3770492,40.3653846 17.4098361,40.3461538 17.442623,40.3269231 C17.4754098,40.3076923 17.5081967,40.2884615 17.5409836,40.2692308 C17.6065574,40.2307692 17.6721311,40.1923077 17.7213115,40.1730769 C17.7704918,40.1538462 17.8196721,40.1153846 17.8688525,40.0961538 C17.9016393,40.0769231 17.9344262,40.0576923 17.9672131,40.0384615 C17.9836066,40.0192308 18,40.0192308 18,40.0192308 C18,40.0192308 17.9836066,40.0192308 17.9672131,40.0192308 C17.9508197,40.0192308 17.9180328,40.0192308 17.8688525,40.0192308 C17.8032787,40 17.7540984,40 17.6885246,40" id="XMLID_143_" fill="#28A571"></path>
                    <path d="M21.7675288,43 C21.7675288,43.1363636 21.6864714,43.2424242 21.5822549,43.2424242 L19,43.2424242 C19.0578981,43.3333333 19.1042166,43.4090909 19.1621147,43.5 L21.5590956,43.5 C21.8485861,43.5 21.9991211,43.3787879 21.9991211,43.2424242 C22.0107007,43.1363636 21.9064842,43.0454545 21.7675288,43" id="XMLID_144_" fill="#30BA87"></path>
                    <path d="M20.8442203,43 L18.1083391,43 C18.0401855,43 17.9915043,42.9220779 18.0012406,42.8441558 C18.059658,41.8181818 18.7119855,41 19.5006203,41 C20.2795188,41 20.9123739,41.7922078 21,42.7792208 C21,42.8961039 20.9318464,43 20.8442203,43" id="XMLID_145_" fill="#20BB85"></path>
                    <path d="M19.9042553,42 C19.8829787,42 19.8510638,42 19.8191489,42.0169492 C19.8085106,42.0169492 19.787234,42.0169492 19.7765957,42.0338983 C19.7659574,42.0338983 19.7446809,42.0508475 19.7340426,42.0508475 C19.7021277,42.0677966 19.6595745,42.0677966 19.6276596,42.1016949 C19.5957447,42.1186441 19.5531915,42.1355932 19.5212766,42.1694915 C19.5106383,42.1864407 19.4893617,42.1864407 19.4680851,42.2033898 L19.4148936,42.2542373 C19.3829787,42.2881356 19.3510638,42.3220339 19.3191489,42.3728814 C19.3085106,42.3898305 19.287234,42.4067797 19.2765957,42.4237288 C19.2659574,42.440678 19.2553191,42.4576271 19.2340426,42.4745763 C19.212766,42.5084746 19.1914894,42.559322 19.1595745,42.5932203 C19.1382979,42.6440678 19.1170213,42.6779661 19.0957447,42.7118644 C19.0851064,42.7457627 19.0638298,42.779661 19.0531915,42.8305085 C19.0425532,42.8644068 19.0319149,42.8983051 19.0212766,42.9152542 C19.0106383,42.9661017 19,43 19,43 L19.0106383,42.9830508 C19.0106383,42.9661017 19.0212766,42.9661017 19.0425532,42.9491525 C19.0744681,42.9152542 19.106383,42.8644068 19.1489362,42.8135593 C19.1702128,42.779661 19.1914894,42.7627119 19.2234043,42.7288136 C19.2446809,42.6949153 19.2765957,42.6779661 19.3085106,42.6271186 C19.3297872,42.5932203 19.3617021,42.559322 19.393617,42.5254237 C19.4255319,42.4915254 19.4574468,42.4576271 19.4787234,42.4237288 L19.5212766,42.3728814 C19.5425532,42.3559322 19.5531915,42.3389831 19.5638298,42.3389831 C19.5957447,42.3050847 19.6276596,42.2881356 19.6595745,42.2542373 C19.6914894,42.2372881 19.7234043,42.2033898 19.7446809,42.1864407 C19.7553191,42.1694915 19.7659574,42.1694915 19.787234,42.1525424 C19.7978723,42.1355932 19.8191489,42.1355932 19.8297872,42.1186441 C19.8510638,42.1016949 19.8723404,42.0847458 19.9042553,42.0677966 C19.9255319,42.0508475 19.9468085,42.0508475 19.9574468,42.0338983 C19.9893617,42.0169492 20,42 20,42 C20,42 19.9787234,42 19.9468085,42 C19.9468085,42 19.9255319,42 19.9042553,42" id="XMLID_146_" fill="#1DAC7B"></path>
                    <path d="M35,40 L33.5974026,40 C33.2727273,40 33,40.1626016 33,40.3739837 L33,40.3821138 C33,40.5447154 33.1688312,40.6829268 33.4025974,40.7317073 L34.6883117,41 L35,40 Z" id="XMLID_147_" fill="#384A5E"></path>
                    <path d="M46,40 L47.4424242,40 C47.7454545,40 48,40.1626016 48,40.3739837 L48,40.3821138 C48,40.5447154 47.8424242,40.6829268 47.6242424,40.7317073 L46.4242424,41 L46,40 Z" id="XMLID_156_" fill="#384A5E"></path>
                </g>
            </g>
        </g>
    </g>
</svg>